<svg width="1318" height="427" viewBox="0 0 1318 427" fill="none" xmlns="http://www.w3.org/2000/svg">
<path d="M1289.86 360.702C1281.5 360.702 1274.6 358.103 1269.18 352.904C1263.98 347.479 1261.38 341.038 1261.38 333.579C1261.38 325.894 1263.98 319.452 1269.18 314.254C1274.6 308.829 1281.5 306.117 1289.86 306.117C1298 306.117 1304.66 308.829 1309.86 314.254C1315.29 319.452 1318 325.894 1318 333.579C1318 341.038 1315.29 347.479 1309.86 352.904C1304.66 358.103 1298 360.702 1289.86 360.702Z" fill="black"/>
<path d="M1232.63 188.81H1279.08L1179.07 426.136H1135.33L1167.2 352.226L1100.41 188.81H1148.89L1190.25 300.353L1232.63 188.81Z" fill="black"/>
<path d="M979.725 332.9L985.15 332.222V426.136H941.753V188.81H981.082L983.794 209.83C988.766 203.275 995.773 197.737 1004.81 193.217C1013.86 188.696 1024.25 186.436 1036.01 186.436C1050.7 186.436 1063.69 190.053 1074.99 197.285C1086.3 204.518 1095.11 214.689 1101.44 227.799C1107.99 240.682 1111.27 255.939 1111.27 273.569C1111.27 291.199 1107.99 306.569 1101.44 319.678C1095.11 332.787 1086.3 342.959 1074.99 350.191C1063.92 357.198 1050.92 360.701 1036.01 360.701C1022.9 360.701 1011.48 357.989 1001.76 352.565C992.27 347.14 984.924 340.585 979.725 332.9ZM1064.48 273.569C1064.48 259.329 1060.76 247.915 1053.3 239.326C1046.06 230.511 1036.57 226.104 1024.82 226.104C1017.58 226.104 1010.92 228.025 1004.81 231.867C998.938 235.484 994.191 240.795 990.575 247.802C986.958 254.583 985.15 263.172 985.15 273.569C985.15 283.74 986.958 292.329 990.575 299.336C994.191 306.342 998.938 311.767 1004.81 315.609C1010.92 319.226 1017.58 321.034 1024.82 321.034C1036.57 321.034 1046.06 316.74 1053.3 308.151C1060.76 299.336 1064.48 287.808 1064.48 273.569Z" fill="black"/>
<path d="M844.124 360.701C827.624 360.701 812.933 357.198 800.049 350.191C787.166 342.959 776.995 332.9 769.536 320.017C762.303 306.908 758.687 291.538 758.687 273.908C758.687 256.052 762.416 240.569 769.875 227.46C777.56 214.35 787.957 204.292 801.066 197.285C814.176 190.053 828.867 186.436 845.141 186.436C861.415 186.436 876.107 190.053 889.216 197.285C902.326 204.292 912.723 214.35 920.408 227.46C928.092 240.343 931.935 255.6 931.935 273.23C931.935 291.086 927.979 306.569 920.069 319.678C912.384 332.787 901.873 342.959 888.538 350.191C875.429 357.198 860.624 360.701 844.124 360.701ZM843.785 321.712C850.792 321.712 857.46 320.017 863.788 316.627C870.117 313.01 875.316 307.699 879.384 300.692C883.452 293.459 885.487 284.305 885.487 273.23C885.487 262.607 883.565 253.792 879.723 246.785C875.881 239.552 870.795 234.241 864.466 230.85C858.364 227.234 851.696 225.426 844.463 225.426C837.456 225.426 830.902 227.234 824.799 230.85C818.922 234.241 814.176 239.552 810.559 246.785C806.943 253.792 805.135 262.833 805.135 273.908C805.135 284.531 806.83 293.459 810.22 300.692C813.837 307.699 818.583 313.01 824.46 316.627C830.337 320.017 836.778 321.712 843.785 321.712Z" fill="black"/>
<path d="M665.411 188.81H704.74L707.791 210.508C712.538 204.631 717.849 199.885 723.726 196.268C729.829 192.426 736.496 189.827 743.729 188.471C750.962 186.888 758.534 187.001 766.445 188.81V229.494C760.342 227.46 753.9 226.895 747.12 227.799C740.565 228.703 734.349 231.076 728.473 234.919C722.822 238.761 718.075 244.299 714.233 251.532C710.617 258.538 708.808 267.466 708.808 278.316V358.328H665.411V188.81Z" fill="black"/>
<path d="M576.859 188.81V141.345H620.595V188.81H658.228V227.121H620.595V295.946C620.595 304.761 622.516 310.976 626.359 314.593C630.201 318.209 634.948 320.13 640.598 320.356C646.475 320.582 652.351 320.243 658.228 319.339V356.633C647.831 358.894 637.66 359.572 627.715 358.668C617.996 357.763 609.294 355.164 601.609 350.87C593.924 346.349 587.821 339.568 583.301 330.527C579.006 321.486 576.859 309.959 576.859 295.946V227.121H552.788V188.81H576.859Z" fill="black"/>
<path d="M497.471 188.81H540.868V358.328H497.471V188.81ZM519.509 167.111C511.372 167.111 504.704 164.512 499.506 159.313C494.307 154.115 491.708 147.899 491.708 140.666C491.708 133.208 494.307 126.992 499.506 122.019C504.704 116.821 511.372 114.221 519.509 114.221C527.194 114.221 533.635 116.821 538.834 122.019C544.259 126.992 546.971 133.208 546.971 140.666C546.971 147.899 544.259 154.115 538.834 159.313C533.635 164.512 527.194 167.111 519.509 167.111Z" fill="black"/>
<path d="M352.44 214.238C357.639 206.553 364.985 199.998 374.478 194.573C384.197 189.149 395.611 186.436 408.72 186.436C423.638 186.436 436.634 190.053 447.71 197.286C459.011 204.292 467.826 214.351 474.155 227.46C480.709 240.569 483.987 255.939 483.987 273.569C483.987 291.199 480.709 306.569 474.155 319.678C467.826 332.562 459.011 342.62 447.71 349.852C436.408 357.085 423.412 360.702 408.72 360.702C396.967 360.702 386.57 358.441 377.529 353.921C368.488 349.174 361.481 343.637 356.509 337.308L353.796 358.328H314.468V114.221H357.865V214.916L352.44 214.238ZM437.2 273.569C437.2 259.329 433.47 247.915 426.011 239.326C418.779 230.511 409.285 226.104 397.532 226.104C390.299 226.104 383.632 228.025 377.529 231.867C371.652 235.484 366.906 240.795 363.289 247.802C359.673 254.809 357.865 263.398 357.865 273.569C357.865 283.74 359.673 292.329 363.289 299.336C366.906 306.343 371.652 311.767 377.529 315.61C383.632 319.226 390.299 321.034 397.532 321.034C409.285 321.034 418.779 316.74 426.011 308.151C433.47 299.336 437.2 287.809 437.2 273.569Z" fill="black"/>
<path d="M70 266.336C70 284.009 55.6731 298.336 38 298.336C20.3269 298.336 6 284.009 6 266.336C6 248.663 20.3269 234.336 38 234.336C55.6731 234.336 70 248.663 70 266.336Z" fill="#7700FF"/>
<path d="M187 325.336C187 343.009 172.673 357.336 155 357.336C137.327 357.336 123 343.009 123 325.336C123 307.663 137.327 293.336 155 293.336C172.673 293.336 187 307.663 187 325.336Z" fill="#7700FF"/>
<path d="M229 259.336C229 277.009 214.673 291.336 197 291.336C179.327 291.336 165 277.009 165 259.336C165 241.663 179.327 227.336 197 227.336C214.673 227.336 229 241.663 229 259.336Z" fill="#7700FF"/>
<path d="M212 186.336C212 204.009 197.673 218.336 180 218.336C162.327 218.336 148 204.009 148 186.336C148 168.663 162.327 154.336 180 154.336C197.673 154.336 212 168.663 212 186.336Z" fill="#7700FF"/>
<path d="M116 324.336C116 342.009 101.673 356.336 84 356.336C66.3269 356.336 52 342.009 52 324.336C52 306.663 66.3269 292.336 84 292.336C101.673 292.336 116 306.663 116 324.336Z" fill="#7700FF"/>
<path d="M69 193.336C69 211.009 54.6731 225.336 37 225.336C19.3269 225.336 5 211.009 5 193.336C5 175.663 19.3269 161.336 37 161.336C54.6731 161.336 69 175.663 69 193.336Z" fill="#7700FF"/>
<path d="M69 116.336C69 134.009 54.6731 148.336 37 148.336C19.3269 148.336 5 134.009 5 116.336C5 98.6628 19.3269 84.3359 37 84.3359C54.6731 84.3359 69 98.6628 69 116.336Z" fill="#7700FF"/>
<path d="M69 38.3359C69 56.0091 54.6731 70.3359 37 70.3359C19.3269 70.3359 5 56.0091 5 38.3359C5 20.6628 19.3269 6.33594 37 6.33594C54.6731 6.33594 69 20.6628 69 38.3359Z" fill="#7700FF"/>
<path d="M139 164.336C139 182.009 124.673 196.336 107 196.336C89.3269 196.336 75 182.009 75 164.336C75 146.663 89.3269 132.336 107 132.336C124.673 132.336 139 146.663 139 164.336Z" fill="#7700FF"/>
<path d="M67 267.336C67 285.009 52.6731 299.336 35 299.336C17.3269 299.336 3 285.009 3 267.336C3 249.663 17.3269 235.336 35 235.336C52.6731 235.336 67 249.663 67 267.336Z" fill="#FF009D"/>
<path d="M189 327.336C189 345.009 174.673 359.336 157 359.336C139.327 359.336 125 345.009 125 327.336C125 309.663 139.327 295.336 157 295.336C174.673 295.336 189 309.663 189 327.336Z" fill="#FF009D"/>
<path d="M232 260.336C232 278.009 217.673 292.336 200 292.336C182.327 292.336 168 278.009 168 260.336C168 242.663 182.327 228.336 200 228.336C217.673 228.336 232 242.663 232 260.336Z" fill="#FF009D"/>
<path d="M214 184.336C214 202.009 199.673 216.336 182 216.336C164.327 216.336 150 202.009 150 184.336C150 166.663 164.327 152.336 182 152.336C199.673 152.336 214 166.663 214 184.336Z" fill="#FF009D"/>
<path d="M115 327.336C115 345.009 100.673 359.336 83 359.336C65.3269 359.336 51 345.009 51 327.336C51 309.663 65.3269 295.336 83 295.336C100.673 295.336 115 309.663 115 327.336Z" fill="#FF009D"/>
<path d="M67 191.336C67 209.009 52.6731 223.336 35 223.336C17.3269 223.336 3 209.009 3 191.336C3 173.663 17.3269 159.336 35 159.336C52.6731 159.336 67 173.663 67 191.336Z" fill="#FF009D"/>
<path d="M67 113.336C67 131.009 52.6731 145.336 35 145.336C17.3269 145.336 3 131.009 3 113.336C3 95.6628 17.3269 81.3359 35 81.3359C52.6731 81.3359 67 95.6628 67 113.336Z" fill="#FF009D"/>
<path d="M67 35.3359C67 53.0091 52.6731 67.3359 35 67.3359C17.3269 67.3359 3 53.0091 3 35.3359C3 17.6628 17.3269 3.33594 35 3.33594C52.6731 3.33594 67 17.6628 67 35.3359Z" fill="#FF009D"/>
<path d="M139 161.336C139 179.009 124.673 193.336 107 193.336C89.3269 193.336 75 179.009 75 161.336C75 143.663 89.3269 129.336 107 129.336C124.673 129.336 139 143.663 139 161.336Z" fill="#FF009D"/>
<path d="M64 269.336C64 287.009 49.6731 301.336 32 301.336C14.3269 301.336 0 287.009 0 269.336C0 251.663 14.3269 237.336 32 237.336C49.6731 237.336 64 251.663 64 269.336Z" fill="black"/>
<path d="M191 330.336C191 348.009 176.673 362.336 159 362.336C141.327 362.336 127 348.009 127 330.336C127 312.663 141.327 298.336 159 298.336C176.673 298.336 191 312.663 191 330.336Z" fill="black"/>
<path d="M235 262.336C235 280.009 220.673 294.336 203 294.336C185.327 294.336 171 280.009 171 262.336C171 244.663 185.327 230.336 203 230.336C220.673 230.336 235 244.663 235 262.336Z" fill="black"/>
<path d="M217 182.336C217 200.009 202.673 214.336 185 214.336C167.327 214.336 153 200.009 153 182.336C153 164.663 167.327 150.336 185 150.336C202.673 150.336 217 164.663 217 182.336Z" fill="black"/>
<path d="M113 330.336C113 348.009 98.6731 362.336 81 362.336C63.3269 362.336 49 348.009 49 330.336C49 312.663 63.3269 298.336 81 298.336C98.6731 298.336 113 312.663 113 330.336Z" fill="black"/>
<path d="M64 189.336C64 207.009 49.6731 221.336 32 221.336C14.3269 221.336 0 207.009 0 189.336C0 171.663 14.3269 157.336 32 157.336C49.6731 157.336 64 171.663 64 189.336Z" fill="black"/>
<path d="M64 110.336C64 128.009 49.6731 142.336 32 142.336C14.3269 142.336 0 128.009 0 110.336C0 92.6628 14.3269 78.3359 32 78.3359C49.6731 78.3359 64 92.6628 64 110.336Z" fill="black"/>
<path d="M64 32.3359C64 50.0091 49.6731 64.3359 32 64.3359C14.3269 64.3359 0 50.0091 0 32.3359C0 14.6628 14.3269 0.335938 32 0.335938C49.6731 0.335938 64 14.6628 64 32.3359Z" fill="black"/>
<path d="M139 157.336C139 175.009 124.673 189.336 107 189.336C89.3269 189.336 75 175.009 75 157.336C75 139.663 89.3269 125.336 107 125.336C124.673 125.336 139 139.663 139 157.336Z" fill="black"/>
</svg>
