<svg width="1200" height="630" viewBox="0 0 1200 630" fill="none" xmlns="http://www.w3.org/2000/svg">
<g clip-path="url(#clip0_12_2)">
<rect width="1200" height="630" fill="black"/>
<path d="M1177.22 602.762C1175.77 602.762 1174.57 602.311 1173.63 601.409C1172.73 600.468 1172.28 599.35 1172.28 598.056C1172.28 596.723 1172.73 595.606 1173.63 594.704C1174.57 593.763 1175.77 593.292 1177.22 593.292C1178.63 593.292 1179.79 593.763 1180.69 594.704C1181.63 595.606 1182.1 596.723 1182.1 598.056C1182.1 599.35 1181.63 600.468 1180.69 601.409C1179.79 602.311 1178.63 602.762 1177.22 602.762Z" fill="white"/>
<path d="M1167.29 572.94H1175.35L1158 614.114H1150.41L1155.94 601.292L1144.35 572.94H1152.76L1159.94 592.292L1167.29 572.94Z" fill="white"/>
<path d="M1123.42 597.939L1124.36 597.821V614.114H1116.83V572.94H1123.65L1124.12 576.587C1124.98 575.45 1126.2 574.489 1127.77 573.705C1129.34 572.92 1131.14 572.528 1133.18 572.528C1135.73 572.528 1137.98 573.156 1139.94 574.411C1141.9 575.665 1143.43 577.43 1144.53 579.704C1145.67 581.94 1146.24 584.586 1146.24 587.645C1146.24 590.704 1145.67 593.37 1144.53 595.645C1143.43 597.919 1141.9 599.683 1139.94 600.938C1138.02 602.154 1135.77 602.762 1133.18 602.762C1130.91 602.762 1128.93 602.291 1127.24 601.35C1125.59 600.409 1124.32 599.272 1123.42 597.939ZM1138.12 587.645C1138.12 585.175 1137.47 583.194 1136.18 581.704C1134.93 580.175 1133.28 579.41 1131.24 579.41C1129.98 579.41 1128.83 579.744 1127.77 580.41C1126.75 581.038 1125.93 581.959 1125.3 583.175C1124.67 584.351 1124.36 585.841 1124.36 587.645C1124.36 589.41 1124.67 590.9 1125.3 592.115C1125.93 593.331 1126.75 594.272 1127.77 594.939C1128.83 595.566 1129.98 595.88 1131.24 595.88C1133.28 595.88 1134.93 595.135 1136.18 593.645C1137.47 592.115 1138.12 590.115 1138.12 587.645Z" fill="white"/>
<path d="M1099.89 602.762C1097.03 602.762 1094.48 602.154 1092.24 600.938C1090.01 599.683 1088.24 597.939 1086.95 595.703C1085.7 593.429 1085.07 590.762 1085.07 587.704C1085.07 584.606 1085.71 581.92 1087.01 579.646C1088.34 577.371 1090.15 575.626 1092.42 574.411C1094.69 573.156 1097.24 572.528 1100.07 572.528C1102.89 572.528 1105.44 573.156 1107.71 574.411C1109.99 575.626 1111.79 577.371 1113.12 579.646C1114.46 581.881 1115.12 584.528 1115.12 587.586C1115.12 590.684 1114.44 593.37 1113.07 595.645C1111.73 597.919 1109.91 599.683 1107.6 600.938C1105.32 602.154 1102.75 602.762 1099.89 602.762ZM1099.83 595.997C1101.05 595.997 1102.2 595.703 1103.3 595.115C1104.4 594.488 1105.3 593.566 1106.01 592.351C1106.71 591.096 1107.07 589.508 1107.07 587.586C1107.07 585.743 1106.73 584.214 1106.07 582.998C1105.4 581.743 1104.52 580.822 1103.42 580.234C1102.36 579.606 1101.2 579.293 1099.95 579.293C1098.73 579.293 1097.6 579.606 1096.54 580.234C1095.52 580.822 1094.69 581.743 1094.07 582.998C1093.44 584.214 1093.13 585.782 1093.13 587.704C1093.13 589.547 1093.42 591.096 1094.01 592.351C1094.64 593.566 1095.46 594.488 1096.48 595.115C1097.5 595.703 1098.62 595.997 1099.83 595.997Z" fill="white"/>
<path d="M1068.89 572.94H1075.71L1076.24 576.705C1077.06 575.685 1077.98 574.862 1079 574.234C1080.06 573.568 1081.22 573.117 1082.47 572.882C1083.73 572.607 1085.04 572.627 1086.41 572.94V579.999C1085.36 579.646 1084.24 579.548 1083.06 579.705C1081.92 579.862 1080.85 580.273 1079.83 580.94C1078.85 581.607 1078.02 582.567 1077.36 583.822C1076.73 585.038 1076.41 586.587 1076.41 588.469V602.35H1068.89V572.94Z" fill="white"/>
<path d="M1053.52 572.941V564.706H1061.11V572.941H1067.64V579.587H1061.11V591.528C1061.11 593.057 1061.44 594.136 1062.11 594.763C1062.78 595.39 1063.6 595.724 1064.58 595.763C1065.6 595.802 1066.62 595.743 1067.64 595.586V602.057C1065.84 602.449 1064.07 602.566 1062.35 602.41C1060.66 602.253 1059.15 601.802 1057.82 601.057C1056.48 600.272 1055.42 599.096 1054.64 597.528C1053.89 595.959 1053.52 593.959 1053.52 591.528V579.587H1049.35V572.941H1053.52Z" fill="white"/>
<path d="M1039.75 572.94H1047.28V602.35H1039.75V572.94ZM1043.57 569.176C1042.16 569.176 1041 568.725 1040.1 567.823C1039.2 566.921 1038.75 565.843 1038.75 564.588C1038.75 563.294 1039.2 562.216 1040.1 561.353C1041 560.451 1042.16 560 1043.57 560C1044.91 560 1046.02 560.451 1046.93 561.353C1047.87 562.216 1048.34 563.294 1048.34 564.588C1048.34 565.843 1047.87 566.921 1046.93 567.823C1046.02 568.725 1044.91 569.176 1043.57 569.176Z" fill="white"/>
<path d="M1014.59 577.352C1015.49 576.019 1016.76 574.881 1018.41 573.94C1020.1 572.999 1022.08 572.529 1024.35 572.529C1026.94 572.529 1029.19 573.156 1031.12 574.411C1033.08 575.626 1034.61 577.371 1035.7 579.646C1036.84 581.92 1037.41 584.587 1037.41 587.645C1037.41 590.704 1036.84 593.37 1035.7 595.645C1034.61 597.88 1033.08 599.625 1031.12 600.88C1029.16 602.135 1026.9 602.762 1024.35 602.762C1022.31 602.762 1020.51 602.37 1018.94 601.586C1017.37 600.762 1016.16 599.801 1015.29 598.703L1014.82 602.35H1008V560H1015.53V577.47L1014.59 577.352ZM1029.29 587.645C1029.29 585.175 1028.65 583.195 1027.35 581.705C1026.1 580.175 1024.45 579.411 1022.41 579.411C1021.16 579.411 1020 579.744 1018.94 580.41C1017.92 581.038 1017.1 581.959 1016.47 583.175C1015.84 584.391 1015.53 585.881 1015.53 587.645C1015.53 589.41 1015.84 590.9 1016.47 592.116C1017.1 593.331 1017.92 594.272 1018.94 594.939C1020 595.566 1021.16 595.88 1022.41 595.88C1024.45 595.88 1026.1 595.135 1027.35 593.645C1028.65 592.116 1029.29 590.116 1029.29 587.645Z" fill="white"/>
<path d="M48.7477 343.894C23.1404 408.439 -49.9422 440.004 -114.487 414.397C-179.031 388.789 -210.596 315.707 -184.989 251.162C-159.382 186.617 -86.2991 155.053 -21.7545 180.66C42.7901 206.267 74.355 279.35 48.7477 343.894Z" fill="#7700FF"/>
<path d="M390.56 728.897C364.953 793.441 291.87 825.006 227.326 799.399C162.781 773.792 131.216 700.709 156.823 636.164C182.431 571.62 255.513 540.055 320.058 565.662C384.603 591.27 416.167 664.352 390.56 728.897Z" fill="#7700FF"/>
<path d="M639.58 548.711C613.973 613.256 540.89 644.821 476.346 619.214C411.801 593.606 380.236 520.524 405.843 455.979C431.451 391.434 504.533 359.869 569.078 385.477C633.622 411.084 665.187 484.167 639.58 548.711Z" fill="#7700FF"/>
<path d="M683.267 257.473C657.659 322.018 584.577 353.583 520.032 327.976C455.487 302.368 423.922 229.286 449.53 164.741C475.137 100.196 548.22 68.6314 612.764 94.2387C677.309 119.846 708.874 192.929 683.267 257.473Z" fill="#7700FF"/>
<path d="M132.707 622.37C107.1 686.914 34.0174 718.479 -30.5272 692.872C-95.0718 667.265 -126.637 594.182 -101.029 529.637C-75.4221 465.093 -2.33952 433.528 62.2051 459.135C126.75 484.742 158.315 557.825 132.707 622.37Z" fill="#7700FF"/>
<path d="M150.868 75.8395C125.261 140.384 52.1785 171.949 -12.3662 146.342C-76.9108 120.734 -108.476 47.6518 -82.8684 -16.8929C-57.2611 -81.4375 15.8215 -113.002 80.3662 -87.3951C144.911 -61.7878 176.476 11.2948 150.868 75.8395Z" fill="#7700FF"/>
<path d="M262.437 -205.375C236.83 -140.83 163.747 -109.266 99.2024 -134.873C34.6578 -160.48 3.09286 -233.563 28.7002 -298.107C54.3075 -362.652 127.39 -394.217 191.935 -368.61C256.479 -343.002 288.044 -269.92 262.437 -205.375Z" fill="#7700FF"/>
<path d="M375.454 -490.242C349.847 -425.697 276.765 -394.132 212.22 -419.74C147.675 -445.347 116.11 -518.429 141.718 -582.974C167.325 -647.519 240.408 -679.084 304.952 -653.476C369.497 -627.869 401.062 -554.786 375.454 -490.242Z" fill="#7700FF"/>
<path d="M448.537 71.3535C422.93 135.898 349.847 167.463 285.303 141.856C220.758 116.248 189.193 43.1658 214.801 -21.3789C240.408 -85.9235 313.49 -117.488 378.035 -91.8811C442.58 -66.2737 474.145 6.80884 448.537 71.3535Z" fill="#7700FF"/>
<path d="M36.3423 343.2C10.735 407.744 -62.3476 439.309 -126.892 413.702C-191.437 388.095 -223.002 315.012 -197.394 250.467C-171.787 185.923 -98.7045 154.358 -34.1599 179.965C30.3848 205.572 61.9497 278.655 36.3423 343.2Z" fill="#FF009D"/>
<path d="M394.966 739.099C369.359 803.644 296.277 835.208 231.732 809.601C167.187 783.994 135.622 710.911 161.23 646.367C186.837 581.822 259.92 550.257 324.464 575.864C389.009 601.472 420.574 674.554 394.966 739.099Z" fill="#FF009D"/>
<path d="M649.088 556.71C623.48 621.255 550.398 652.82 485.853 627.212C421.308 601.605 389.743 528.523 415.351 463.978C440.958 399.433 514.041 367.868 578.585 393.476C643.13 419.083 674.695 492.166 649.088 556.71Z" fill="#FF009D"/>
<path d="M693.469 253.067C667.861 317.612 594.779 349.176 530.234 323.569C465.69 297.962 434.125 224.879 459.732 160.335C485.339 95.7899 558.422 64.225 622.966 89.8324C687.511 115.44 719.076 188.522 693.469 253.067Z" fill="#FF009D"/>
<path d="M124.708 631.877C99.101 696.422 26.0184 727.987 -38.5262 702.379C-103.071 676.772 -134.636 603.689 -109.028 539.145C-83.4211 474.6 -10.3385 443.035 54.2061 468.643C118.751 494.25 150.316 567.333 124.708 631.877Z" fill="#FF009D"/>
<path d="M146.462 65.6373C120.855 130.182 47.7721 161.747 -16.7726 136.14C-81.3172 110.532 -112.882 37.4496 -87.2748 -27.095C-61.6675 -91.6397 11.4151 -123.205 75.9598 -97.5972C140.504 -71.9899 172.069 1.09267 146.462 65.6373Z" fill="#FF009D"/>
<path d="M259.48 -219.229C233.872 -154.685 160.79 -123.12 96.245 -148.727C31.7003 -174.334 0.135418 -247.417 25.7427 -311.962C51.3501 -376.506 124.433 -408.071 188.977 -382.464C253.522 -356.857 285.087 -283.774 259.48 -219.229Z" fill="#FF009D"/>
<path d="M372.497 -504.096C346.89 -439.551 273.807 -407.987 209.262 -433.594C144.718 -459.201 113.153 -532.284 138.76 -596.828C164.368 -661.373 237.45 -692.938 301.995 -667.331C366.539 -641.723 398.104 -568.641 372.497 -504.096Z" fill="#FF009D"/>
<path d="M452.884 60.3971C427.277 124.942 354.194 156.507 289.65 130.899C225.105 105.292 193.54 32.2094 219.147 -32.3353C244.755 -96.8799 317.837 -128.445 382.382 -102.837C446.927 -77.2302 478.491 -4.14757 452.884 60.3971Z" fill="#FF009D"/>
<path d="M22.488 346.157C-3.11928 410.702 -76.2019 442.267 -140.746 416.659C-205.291 391.052 -236.856 317.969 -211.249 253.425C-185.641 188.88 -112.559 157.315 -48.0142 182.923C16.5305 208.53 48.0954 281.613 22.488 346.157Z" fill="black"/>
<path d="M397.924 752.953C372.317 817.498 299.234 849.063 234.689 823.455C170.145 797.848 138.58 724.766 164.187 660.221C189.795 595.676 262.877 564.111 327.422 589.719C391.966 615.326 423.531 688.409 397.924 752.953Z" fill="black"/>
<path d="M657.146 568.361C631.539 632.906 558.456 664.471 493.912 638.864C429.367 613.256 397.802 540.174 423.409 475.629C449.017 411.084 522.099 379.52 586.644 405.127C651.188 430.734 682.753 503.817 657.146 568.361Z" fill="black"/>
<path d="M707.323 250.109C681.716 314.654 608.633 346.219 544.088 320.612C479.544 295.004 447.979 221.922 473.586 157.377C499.194 92.8325 572.276 61.2676 636.821 86.8749C701.365 112.482 732.93 185.565 707.323 250.109Z" fill="black"/>
<path d="M113.057 639.936C87.4499 704.48 14.3673 736.045 -50.1773 710.438C-114.722 684.831 -146.287 611.748 -120.68 547.203C-95.0722 482.659 -21.9896 451.094 42.555 476.701C107.1 502.308 138.665 575.391 113.057 639.936Z" fill="black"/>
<path d="M138.403 53.9862C112.796 118.531 39.7135 150.096 -24.8311 124.488C-89.3757 98.8811 -120.941 25.7985 -95.3333 -38.7461C-69.726 -103.291 3.35661 -134.856 67.9012 -109.248C132.446 -83.641 164.011 -10.5584 138.403 53.9862Z" fill="black"/>
<path d="M252.87 -234.533C227.263 -169.988 154.18 -138.423 89.6354 -164.03C25.0908 -189.638 -6.47417 -262.72 19.1332 -327.265C44.7405 -391.81 117.823 -423.374 182.368 -397.767C246.912 -372.16 278.477 -299.077 252.87 -234.533Z" fill="black"/>
<path d="M365.887 -519.399C340.28 -454.855 267.198 -423.29 202.653 -448.897C138.108 -474.504 106.543 -547.587 132.151 -612.132C157.758 -676.676 230.841 -708.241 295.385 -682.634C359.93 -657.027 391.495 -583.944 365.887 -519.399Z" fill="black"/>
<path d="M458.68 45.7885C433.073 110.333 359.99 141.898 295.445 116.291C230.901 90.6834 199.336 17.6008 224.943 -46.9438C250.55 -111.488 323.633 -143.053 388.178 -117.446C452.722 -91.8387 484.287 -18.7561 458.68 45.7885Z" fill="black"/>
</g>
<defs>
<clipPath id="clip0_12_2">
<rect width="1200" height="630" fill="white"/>
</clipPath>
</defs>
</svg>
